<?xml version="1.0" standalone="no"?>
<!DOCTYPE svg PUBLIC "-//W3C//DTD SVG 20010904//EN"
 "http://www.w3.org/TR/2001/REC-SVG-20010904/DTD/svg10.dtd">
<svg version="1.0" xmlns="http://www.w3.org/2000/svg"
 width="400.000000pt" height="400.000000pt" viewBox="0 0 400.000000 400.000000"
 preserveAspectRatio="xMidYMid meet">
<metadata>
Created by potrace 1.11, written by Peter Selinger 2001-2013
</metadata>
<g transform="translate(0.000000,400.000000) scale(0.100000,-0.100000)"
fill="#000000" stroke="none">
<path d="M1006 3991 c-3 -5 -50 -41 -104 -80 -244 -176 -469 -452 -627 -768
-35 -70 -75 -159 -90 -198 -14 -38 -30 -79 -35 -90 -4 -11 -13 -38 -18 -60 -6
-22 -23 -81 -37 -132 -35 -123 -75 -344 -75 -415 0 -31 -4 -60 -10 -63 -13 -8
-14 -352 -1 -359 5 -3 12 -36 16 -73 3 -38 13 -97 20 -133 7 -36 16 -90 19
-120 5 -43 52 -220 81 -298 4 -10 9 -10 24 0 17 10 24 9 44 -10 24 -23 43 -30
31 -11 -4 7 2 9 16 7 28 -4 52 -38 32 -45 -22 -8 66 -56 90 -50 24 7 135 -28
159 -49 22 -19 36 -17 49 6 13 24 36 26 44 4 12 -31 6 -63 -14 -74 -24 -13
-26 -36 -4 -44 9 -4 14 -13 10 -21 -4 -12 3 -15 29 -15 24 0 35 -5 35 -15 0
-18 24 -20 38 -2 9 10 6 18 -9 30 l-20 18 21 29 c26 36 35 37 51 8 7 -13 17
-26 23 -30 8 -5 7 -8 -1 -8 -7 0 -13 -11 -13 -25 0 -17 -6 -25 -17 -25 -10 0
-29 -9 -43 -20 -16 -12 -41 -20 -67 -20 -23 0 -48 -3 -57 -6 -39 -15 -2 -75
66 -107 43 -20 70 -48 39 -40 -11 3 -26 11 -32 19 -6 8 -17 14 -23 14 -7 0
-31 16 -55 36 -36 32 -41 40 -36 65 6 28 5 29 -29 29 -25 0 -36 4 -36 15 0 11
-12 15 -44 15 -40 0 -48 -4 -80 -42 -20 -23 -36 -49 -36 -57 1 -21 34 -93 54
-117 8 -10 44 -60 78 -111 130 -190 348 -407 521 -516 55 -36 61 -37 147 -37
50 0 90 2 90 5 0 3 -9 15 -20 28 -62 67 -87 105 -95 143 -5 28 -3 33 25 44 51
21 34 31 -47 30 -88 -2 -163 8 -163 21 0 5 -6 9 -12 9 -18 0 -108 100 -114
127 -7 28 22 159 41 187 21 29 19 39 -8 32 -23 -5 -83 25 -71 37 13 12 -6 57
-24 57 -18 0 -62 38 -62 53 0 4 19 4 43 1 30 -5 50 -16 68 -38 26 -30 28 -30
46 -14 11 10 32 18 47 18 15 0 38 10 52 23 14 13 48 29 77 36 29 8 67 23 86
34 19 11 54 21 80 22 25 1 66 6 91 10 44 7 46 6 60 -26 21 -46 40 -49 40 -5 0
19 -4 38 -10 41 -5 3 -10 13 -10 21 0 25 121 19 186 -11 30 -14 59 -25 64 -25
6 0 10 -6 10 -14 0 -16 21 -26 54 -26 12 0 41 -9 65 -21 23 -11 66 -23 94 -26
75 -8 88 -17 77 -51 -5 -15 -11 -61 -14 -102 -7 -84 -22 -142 -60 -224 -35
-77 -71 -98 -154 -94 -50 3 -62 1 -57 -10 3 -8 8 -25 11 -38 3 -13 12 -24 19
-24 7 0 18 -7 25 -15 9 -11 16 -13 24 -5 5 5 19 10 31 10 35 0 97 40 160 103
33 32 68 66 78 75 19 17 21 30 7 52 -7 12 -12 12 -29 -5 -25 -22 -37 -15 -21
12 23 37 94 55 118 31 8 -8 12 -8 12 -1 0 6 -7 13 -15 17 -17 6 -20 51 -5 61
5 3 10 14 10 23 0 10 10 23 21 31 21 12 22 12 15 -19 -5 -27 -4 -30 8 -21 8 6
16 28 18 47 4 32 2 35 -18 30 -18 -5 -21 -2 -17 14 4 15 14 20 37 20 17 1 42
7 55 14 13 7 32 11 41 9 16 -4 80 51 80 70 0 4 13 7 30 7 23 0 28 -3 23 -16
-4 -12 -2 -15 8 -12 8 3 13 14 11 26 -2 15 6 25 27 37 28 14 31 14 31 0 0 -12
6 -15 20 -10 11 3 20 2 20 -3 0 -5 20 -7 44 -5 35 4 48 1 64 -15 l20 -20 5 20
c6 20 8 19 44 -10 38 -30 102 -44 186 -42 15 0 37 -5 48 -11 17 -9 21 -7 26
10 3 12 10 21 15 21 11 0 2 49 -11 63 -4 4 -21 1 -37 -8 -37 -19 -42 -19 -84
4 -19 10 -60 25 -90 34 -44 13 -63 26 -93 62 -28 34 -50 49 -83 57 -54 15 -58
37 -12 69 54 37 102 81 114 103 18 31 -12 88 -42 80 -33 -8 -59 3 -75 33 -8
15 -33 46 -57 70 -23 24 -45 57 -49 74 -4 23 -8 27 -19 18 -8 -6 -14 -18 -14
-26 0 -26 -39 -91 -59 -98 -10 -3 -36 -6 -57 -6 -77 -2 -127 -41 -176 -139
-19 -36 -30 -46 -57 -51 -28 -6 -38 -3 -57 18 -24 26 -32 76 -16 99 7 11 36
25 60 30 8 1 32 21 53 44 l40 42 -21 23 c-31 33 -22 58 25 73 78 25 98 75 35
84 -23 4 -33 0 -37 -11 -4 -9 -13 -24 -21 -34 -12 -13 -17 -15 -24 -5 -13 22
-9 57 10 67 16 10 16 10 -2 11 -11 0 -30 9 -42 21 -20 19 -26 20 -57 8 -29
-10 -39 -10 -51 0 -23 19 -21 78 3 93 25 15 10 48 -22 48 -16 0 -26 10 -35 33
-7 17 -18 41 -24 51 -19 36 45 63 72 31 19 -23 30 -18 30 12 0 36 9 25 12 -15
3 -39 29 -40 38 -2 5 20 14 26 48 31 35 4 42 3 42 -12 0 -25 -28 -45 -42 -31
-7 7 -18 12 -25 12 -18 0 -16 -35 2 -50 8 -7 15 -29 15 -50 0 -24 7 -43 19
-54 19 -17 20 -17 31 6 7 13 31 42 53 66 39 39 44 42 97 42 66 0 111 -24 130
-69 16 -40 29 -39 58 2 26 39 27 55 6 86 -14 19 -14 27 -4 47 19 35 50 30 86
-13 35 -42 54 -38 54 12 0 29 4 36 26 41 28 7 74 -9 74 -26 0 -5 9 -10 20 -10
13 0 20 7 20 19 0 25 15 35 55 35 25 1 31 5 33 29 3 20 -4 35 -26 55 -51 48
-64 76 -51 106 8 16 9 30 3 35 -5 4 -70 15 -144 25 -74 9 -150 22 -168 28 -45
14 -74 4 -95 -31 -24 -42 -131 -119 -175 -127 -47 -8 -68 -19 -116 -61 -33
-28 -48 -33 -89 -33 -27 0 -73 7 -102 15 -99 29 -232 132 -267 205 -9 19 -26
56 -38 83 -12 26 -29 47 -37 47 -20 0 -76 57 -68 70 5 8 11 7 21 -1 11 -9 14
-7 14 14 0 14 -5 29 -11 32 -5 4 -14 18 -19 31 -5 13 -17 25 -27 25 -10 1 -2
4 17 8 24 4 36 12 38 26 2 11 11 28 20 38 19 22 7 35 -18 20 -14 -10 -21 -9
-30 2 -7 8 -21 15 -31 15 -33 0 -31 20 3 21 l33 1 -34 8 c-35 8 -69 -9 -56
-29 10 -17 -11 -21 -31 -6 -10 8 -28 15 -39 16 -17 1 -16 2 5 9 17 5 19 8 8 9
-10 1 -18 5 -18 9 0 14 35 42 53 42 10 0 17 8 17 20 0 13 9 22 28 26 15 4 33
11 40 17 9 7 24 7 47 -2 29 -10 39 -9 72 8 21 10 49 28 62 40 13 12 29 21 36
21 6 0 24 13 40 30 16 16 46 42 67 56 36 25 51 54 27 54 -5 0 -16 15 -24 33
-7 17 -28 41 -47 51 -18 11 -39 28 -46 38 -7 10 -19 18 -26 18 -8 0 -16 6 -19
13 -2 6 -28 20 -56 31 -28 10 -51 24 -51 31 0 7 -7 15 -15 19 -8 3 -15 15 -15
26 0 15 -7 20 -25 20 -14 0 -28 7 -32 15 -9 26 6 30 37 12 20 -12 31 -14 36
-6 5 8 10 7 16 -5 7 -13 13 -14 29 -6 15 9 21 7 25 -5 3 -8 4 -21 1 -29 -3 -8
1 -20 9 -27 12 -10 18 -8 30 9 8 12 20 22 26 22 6 0 16 7 23 16 17 24 52 9 71
-32 12 -26 22 -34 35 -31 10 3 26 -1 36 -9 24 -18 34 -17 27 1 -4 10 0 15 11
15 10 0 15 -5 12 -13 -3 -8 -1 -20 3 -27 7 -11 14 -10 42 3 27 14 29 17 11 17
-12 0 -29 10 -38 23 -15 21 -14 23 13 47 21 18 29 35 30 58 0 17 -2 32 -6 33
-4 0 -15 2 -25 4 -10 2 -30 -3 -45 -11 -32 -16 -72 -18 -72 -4 0 6 12 15 26
20 19 8 24 15 19 30 -6 20 5 27 19 13 15 -15 55 -9 59 9 3 10 14 18 25 18 25
0 37 16 37 48 0 17 11 30 42 48 l43 24 6 -40 c7 -45 5 -44 59 -26 31 10 44 22
60 54 11 23 26 41 33 42 7 0 28 16 47 35 41 40 45 77 15 115 l-20 25 3 -28 c2
-16 9 -32 16 -36 9 -6 10 -11 3 -15 -6 -4 -22 6 -36 21 -26 28 -34 53 -16 53
5 0 7 7 4 15 -4 8 -13 15 -21 15 -9 0 -13 -6 -10 -13 3 -8 -11 -33 -32 -55
-34 -40 -38 -41 -70 -32 -19 5 -38 7 -43 4 -6 -4 -5 2 1 13 8 17 5 23 -17 40
-30 22 -67 16 -78 -12 -8 -20 -40 -19 -48 2 -5 12 9 31 48 67 50 48 76 82 76
104 0 5 -32 12 -70 15 -80 7 -136 34 -151 74 -12 33 -4 43 35 43 17 0 38 6 44
12 10 10 19 6 41 -18 24 -25 34 -30 65 -26 20 2 36 8 36 13 0 18 61 39 130 45
175 17 45 24 -414 24 -421 0 -496 -2 -496 -14 0 -8 6 -16 13 -19 8 -3 5 -12
-10 -28 -22 -22 -22 -22 -16 -1 3 12 1 22 -5 22 -6 0 -14 9 -17 20 -5 17 -15
20 -65 20 -32 0 -61 -4 -64 -9z m384 -61 c0 -6 -12 -16 -27 -22 -42 -18 -63
-44 -63 -78 0 -44 -16 -29 -23 23 -3 23 -9 51 -13 62 -6 15 -4 17 9 12 9 -3
27 -2 39 3 31 12 78 12 78 0z m-280 -40 c0 -5 -6 -10 -12 -10 -8 -1 -6 -6 5
-14 19 -14 7 -33 -13 -21 -11 7 -13 38 -3 48 10 10 23 8 23 -3z m73 -42 c6
-41 -15 -58 -25 -22 -7 27 -1 54 12 54 4 0 10 -15 13 -32z m357 -38 c0 -29 4
-39 20 -43 25 -6 27 -37 2 -37 -10 0 -28 -13 -40 -30 -20 -26 -29 -30 -73 -30
-30 0 -65 8 -89 20 -48 24 -47 24 -60 0 -8 -14 -7 -25 2 -39 9 -15 8 -22 -5
-35 -17 -17 -28 -21 -26 -8 1 4 0 9 -1 12 -7 17 -5 110 2 110 5 0 13 11 18 24
9 26 99 76 136 76 12 0 37 6 55 14 45 19 59 11 59 -34z m118 -4 c40 -32 41
-35 21 -41 -27 -9 -109 14 -116 32 -9 22 5 43 29 43 13 0 42 -16 66 -34z m52
30 c0 -3 -4 -8 -10 -11 -5 -3 -10 -1 -10 4 0 6 5 11 10 11 6 0 10 -2 10 -4z
m-755 -106 c3 -5 1 -10 -4 -10 -6 0 -11 5 -11 10 0 6 2 10 4 10 3 0 8 -4 11
-10z m265 -6 c0 -17 -22 -14 -28 4 -2 7 3 12 12 12 9 0 16 -7 16 -16z m-134
-21 c-10 -10 -19 5 -10 18 6 11 8 11 12 0 2 -7 1 -15 -2 -18z m264 -118 c7 -8
27 -15 44 -15 18 0 41 -6 51 -14 16 -12 17 -16 6 -30 -7 -9 -10 -16 -5 -16 5
0 -4 -7 -20 -15 -33 -17 -45 -18 -66 -5 -13 9 -11 13 10 30 21 16 22 20 7 20
-10 0 -20 7 -23 15 -3 8 -14 17 -25 20 -11 4 -17 11 -14 16 9 13 21 11 35 -6z
m416 6 c-7 -11 18 -33 27 -24 4 3 7 1 7 -5 0 -6 -19 -15 -42 -19 -44 -9 -61
-28 -31 -37 10 -3 0 -3 -22 0 -66 9 -115 26 -115 42 0 11 10 12 50 7 44 -6 53
-4 81 19 30 25 56 35 45 17z m169 -1 c3 -6 -5 -10 -19 -10 -14 0 -28 -5 -32
-11 -4 -8 -9 -8 -18 1 -8 8 -7 13 4 20 20 13 57 13 65 0z m221 -11 c8 -14 -11
-33 -25 -25 -11 7 -4 36 9 36 5 0 12 -5 16 -11z m-71 -29 c-6 -9 -9 -9 -16 1
-10 17 0 34 13 21 6 -6 7 -16 3 -22z m-924 -45 c-6 -24 -12 -61 -12 -82 l-2
-38 -8 45 c-5 33 -3 58 9 93 20 58 29 45 13 -18z m707 28 c-4 -23 -48 -31 -48
-10 0 9 6 18 13 20 25 11 38 7 35 -10z m-797 -20 c-6 -21 -14 -27 -29 -26 -12
2 -21 -1 -21 -5 4 -23 -3 -24 -15 -2 -16 31 -11 42 18 34 14 -3 27 1 35 10 19
22 20 20 12 -11z m489 -23 c0 -5 -4 -10 -10 -10 -5 0 -10 5 -10 10 0 6 5 10
10 10 6 0 10 -4 10 -10z m244 -15 c-4 -8 -8 -15 -10 -15 -2 0 -4 7 -4 15 0 8
4 15 10 15 5 0 7 -7 4 -15z m223 9 c-3 -3 -12 -4 -19 -1 -8 3 -5 6 6 6 11 1
17 -2 13 -5z m-567 -14 c-20 -13 -43 -13 -35 0 3 6 16 10 28 10 18 0 19 -2 7
-10z m440 6 c0 -11 -19 -15 -25 -6 -3 5 1 10 9 10 9 0 16 -2 16 -4z m-696 -78
c8 -44 3 -48 -20 -13 -9 15 -13 32 -9 46 9 27 21 14 29 -33z m511 43 c28 -7
26 -8 -22 -15 -53 -8 -93 -2 -93 15 0 10 70 10 115 0z m-87 -109 c2 -7 -4 -15
-13 -18 -20 -8 -27 -1 -19 20 7 18 25 17 32 -2z m-73 -1 c3 -5 1 -12 -5 -16
-5 -3 -10 1 -10 9 0 18 6 21 15 7z m-801 -120 c26 -29 17 -54 -22 -62 -31 -6
-33 -5 -27 15 4 11 9 31 12 44 7 27 15 28 37 3z m652 -88 c19 -26 17 -43 -6
-43 -12 0 -20 7 -20 18 0 11 -3 13 -8 5 -5 -8 -13 -9 -22 -3 -8 5 -12 10 -10
12 49 31 50 32 66 11z m-641 -13 c4 -6 -9 -10 -32 -10 -28 0 -34 3 -23 10 20
13 47 13 55 0z m-267 -107 l-4 -38 -8 47 c-4 26 -5 60 0 75 8 27 8 27 12 -9 2
-21 2 -55 0 -75z m72 1 c6 -25 5 -43 -2 -51 -8 -10 -4 -13 16 -13 19 0 26 5
26 19 0 32 17 33 30 2 15 -37 10 -66 -12 -66 -9 0 -20 -4 -24 -8 -4 -4 -14 -7
-23 -7 -9 0 -25 -7 -35 -15 -19 -15 -19 -15 2 -38 23 -24 29 -47 13 -47 -5 0
-19 -17 -32 -37 -25 -42 -84 -103 -99 -103 -6 0 -10 -9 -10 -20 0 -11 -4 -20
-9 -20 -8 0 -6 56 5 128 4 28 8 31 29 26 24 -6 25 -4 25 35 0 34 3 41 17 39
23 -4 39 53 18 68 -21 16 -19 36 6 57 12 11 18 25 15 34 -4 9 -3 31 0 50 6 30
8 33 21 20 8 -8 18 -32 23 -53z m160 56 c0 -5 -7 -10 -15 -10 -8 0 -15 5 -15
10 0 6 7 10 15 10 8 0 15 -4 15 -10z m820 -51 c0 -5 -4 -9 -10 -9 -5 0 -10 7
-10 16 0 8 5 12 10 9 6 -3 10 -10 10 -16z m-860 -8 c0 -5 -7 -14 -15 -21 -16
-14 -18 -10 -9 14 6 17 24 22 24 7z m-80 -162 c0 -5 -10 -9 -21 -9 -18 0 -19
2 -9 15 12 15 30 12 30 -6z m-230 -158 c0 -6 -4 -13 -10 -16 -5 -3 -10 1 -10
9 0 9 5 16 10 16 6 0 10 -4 10 -9z m390 -35 c0 -41 -13 -66 -35 -66 -6 0 -9
21 -8 53 0 28 2 52 2 52 1 1 10 1 21 2 17 2 20 -4 20 -41z m-228 -18 c20 -32
40 -106 32 -119 -3 -6 1 -18 9 -27 9 -9 16 -21 16 -27 -1 -20 23 -16 28 4 5
21 7 21 24 5 11 -9 19 -20 19 -24 0 -3 -22 -29 -50 -57 -61 -63 -63 -84 -10
-108 l39 -18 31 27 c64 53 157 17 143 -56 -3 -18 -10 -41 -14 -50 -5 -9 -9
-27 -9 -39 0 -20 3 -21 45 -16 100 14 202 -24 286 -106 30 -29 75 -68 100 -86
39 -28 49 -30 73 -21 15 5 33 10 40 10 16 0 86 -64 86 -79 0 -16 -74 -50 -153
-71 -71 -17 -72 -18 -75 -52 -5 -54 58 -128 133 -156 31 -12 63 -22 71 -22 13
0 13 -3 0 -22 -9 -12 -16 -31 -16 -41 0 -18 -3 -20 -55 -33 l-30 -7 25 -6 c35
-9 31 -25 -11 -54 -37 -25 -59 -21 -59 9 0 33 -113 83 -190 83 -19 1 -54 1
-77 1 -24 1 -43 -3 -43 -8 0 -5 -24 -4 -55 2 -54 11 -94 43 -80 65 3 5 -4 12
-15 16 -11 4 -20 15 -20 26 0 12 -4 17 -11 14 -6 -4 -13 3 -16 15 -4 16 -11
20 -27 16 -34 -8 -269 -10 -293 -2 -17 5 -23 3 -23 -7 0 -8 7 -17 15 -21 19
-7 20 -52 2 -59 -19 -7 -38 7 -34 24 2 8 2 11 0 7 -3 -5 -11 -8 -19 -8 -9 0
-13 4 -10 8 3 5 -3 24 -13 43 -10 19 -16 39 -14 45 6 18 -46 35 -84 28 -19 -4
-57 -17 -85 -31 -57 -27 -85 -27 -80 2 2 11 7 46 12 79 4 32 17 70 28 85 10
14 22 48 26 75 5 29 16 57 30 71 12 12 20 27 18 34 -2 6 4 28 14 49 10 20 17
47 15 59 -1 12 5 38 13 58 9 19 23 51 32 71 10 23 26 39 45 46 39 14 58 47 31
55 -11 2 -25 16 -31 29 -9 20 -6 34 17 81 15 32 36 69 47 83 29 37 126 130
135 130 4 0 14 -10 22 -22z m368 -28 c0 -5 -4 -10 -10 -10 -5 0 -10 5 -10 10
0 6 5 10 10 10 6 0 10 -4 10 -10z m-182 -63 c-15 -12 -31 -34 -37 -49 -6 -16
-15 -28 -21 -28 -6 0 -8 11 -4 28 7 30 50 71 74 71 10 0 6 -7 -12 -22z m122
13 c0 -5 -4 -10 -10 -10 -5 0 -10 5 -10 10 0 6 5 10 10 10 6 0 10 -4 10 -10z
m396 -25 c-11 -8 -22 -12 -25 -9 -6 6 19 24 34 24 6 -1 1 -7 -9 -15z m54 -113
c0 -12 -23 -32 -37 -32 -7 0 -10 7 -7 15 4 8 10 12 15 9 5 -3 9 0 9 5 0 6 5
11 10 11 6 0 10 -4 10 -8z m65 -92 c-3 -5 -10 -10 -16 -10 -5 0 -9 5 -9 10 0
6 7 10 16 10 8 0 12 -4 9 -10z m55 -50 c0 -5 -5 -10 -11 -10 -5 0 -7 5 -4 10
3 6 8 10 11 10 2 0 4 -4 4 -10z m892 -362 c-15 -15 -26 -4 -18 18 5 13 9 15
18 6 9 -9 9 -15 0 -24z m-204 -36 c3 -20 0 -23 -20 -20 -15 2 -24 11 -26 26
-3 20 0 23 20 20 15 -2 24 -11 26 -26z m108 17 c10 -17 -23 -46 -38 -31 -8 8
-8 15 2 27 15 18 26 19 36 4z m-56 -18 c0 -6 -4 -13 -10 -16 -5 -3 -10 1 -10
9 0 9 5 16 10 16 6 0 10 -4 10 -9z m-2064 -48 c-10 -10 -19 5 -10 18 6 11 8
11 12 0 2 -7 1 -15 -2 -18z m985 -400 c12 -14 12 -16 -1 -8 -19 12 -50 14 -56
4 -2 -5 -12 -5 -20 -2 -13 5 -13 7 -2 14 22 14 65 10 79 -8z m-563 -118 c-3
-14 -1 -22 5 -18 5 3 13 -1 18 -8 13 -22 11 -29 -11 -29 -21 0 -37 38 -26 65
9 24 19 17 14 -10z m718 -160 c-11 -8 -27 -14 -35 -14 -13 1 -12 2 2 6 9 2 17
9 17 14 0 5 8 9 18 9 15 -1 15 -2 -2 -15z m586 -32 c11 -27 30 -59 42 -71 l21
-24 -22 -18 c-13 -10 -23 -26 -23 -35 0 -23 -25 -13 -26 11 -3 46 -16 159 -21
171 -3 7 -2 13 1 13 4 0 16 -21 28 -47z m-82 -64 c7 -11 9 -23 6 -26 -8 -9
-36 17 -36 33 0 21 18 17 30 -7z m600 -7 c0 -4 -5 -13 -12 -20 -8 -8 -8 -15 2
-27 18 -21 -5 -51 -27 -34 -10 9 -17 9 -25 1 -7 -7 -21 -12 -33 -12 -12 0 -26
-5 -32 -11 -6 -6 -19 -9 -29 -7 -10 2 -28 -7 -41 -19 -12 -13 -31 -23 -43 -23
-13 0 -24 -10 -30 -26 -6 -14 -26 -45 -46 -69 -33 -38 -39 -42 -52 -29 -19 19
-4 49 52 106 29 29 41 36 47 26 5 -7 9 -11 10 -8 0 3 3 19 5 35 7 48 11 53 46
60 18 4 53 17 77 28 37 17 76 29 124 36 4 0 7 -3 7 -7z m-909 -39 c20 -51 13
-61 -53 -68 -35 -3 -85 -10 -113 -16 -27 -5 -75 -11 -105 -14 -30 -3 -69 -8
-86 -11 -18 -3 -35 -1 -38 5 -4 6 -18 11 -32 11 -25 0 -32 14 -13 26 6 3 8 17
5 30 -4 14 -2 24 4 24 5 0 10 -5 10 -11 0 -8 5 -8 15 1 15 12 97 16 114 5 5
-3 11 2 15 10 3 8 12 12 21 9 8 -3 15 -1 15 4 0 14 46 19 150 16 71 -2 85 -5
91 -21z m-741 -22 c0 -6 -4 -13 -10 -16 -5 -3 -10 1 -10 9 0 9 5 16 10 16 6 0
10 -4 10 -9z m1337 -16 c1 -5 -12 -19 -30 -31 -17 -11 -44 -29 -59 -38 -23
-15 -28 -16 -28 -4 0 8 12 21 26 29 14 7 30 24 35 37 6 16 16 22 31 20 12 -2
23 -7 25 -13z m-277 -65 c0 -5 -6 -10 -14 -10 -8 0 -18 5 -21 10 -3 6 3 10 14
10 12 0 21 -4 21 -10z m-920 -20 c0 -5 -4 -10 -10 -10 -5 0 -10 5 -10 10 0 6
5 10 10 10 6 0 10 -4 10 -10z m-175 -80 c3 -5 1 -10 -4 -10 -6 0 -11 5 -11 10
0 6 2 10 4 10 3 0 8 -4 11 -10z m185 -45 c0 -8 -4 -15 -9 -15 -13 0 -22 16
-14 24 11 11 23 6 23 -9z"/>
<path d="M757 2035 c-23 -29 -26 -39 -17 -50 28 -34 60 -4 60 54 0 40 -9 39
-43 -4z"/>
<path d="M565 1953 c-11 -2 -30 -6 -42 -9 -30 -6 -29 -22 0 -33 13 -5 29 -16
36 -25 20 -24 40 -19 47 12 3 15 8 35 11 45 4 17 -8 20 -52 10z"/>
<path d="M370 1636 c0 -9 5 -16 10 -16 6 0 10 4 10 9 0 6 -4 13 -10 16 -5 3
-10 -1 -10 -9z"/>
<path d="M1111 964 c0 -11 3 -14 6 -6 3 7 2 16 -1 19 -3 4 -6 -2 -5 -13z"/>
<path d="M2600 3990 c0 -27 -135 -63 -368 -97 -40 -6 -87 -46 -78 -68 7 -19
48 -19 108 -1 27 8 52 10 59 5 23 -14 80 -10 144 10 73 23 88 16 79 -39 l-6
-37 63 -8 c35 -5 76 -8 92 -6 27 2 50 -24 31 -38 -5 -3 -20 -19 -34 -34 l-25
-29 30 13 c17 7 34 16 39 21 6 4 24 8 41 8 19 0 39 8 50 20 10 11 31 20 47 20
15 0 28 3 28 8 0 4 -16 31 -35 59 -28 42 -34 58 -28 83 5 27 3 31 -13 28 -15
-2 -22 7 -33 45 l-15 47 -88 0 c-53 0 -88 -4 -88 -10z"/>
<path d="M2870 3994 c0 -3 5 -14 11 -25 6 -12 7 -28 3 -37 -14 -32 -13 -47 4
-72 45 -66 70 -181 52 -236 -11 -32 -10 -38 10 -59 13 -14 38 -29 57 -36 45
-15 59 -43 38 -76 -12 -17 -23 -23 -37 -20 -14 4 -18 2 -14 -10 3 -8 6 -16 6
-18 0 -2 9 -1 20 2 35 9 22 -20 -26 -59 -26 -21 -53 -38 -60 -38 -8 0 -14 -7
-14 -15 0 -12 -7 -14 -26 -9 -14 4 -35 2 -47 -4 -12 -6 -35 -15 -52 -20 -24
-7 -32 -17 -40 -48 -13 -51 -22 -64 -46 -64 -32 0 -21 -18 13 -22 47 -4 45
-22 -6 -52 -25 -14 -58 -45 -74 -69 -15 -23 -36 -41 -44 -41 -10 1 -23 -14
-34 -37 -9 -22 -22 -39 -29 -39 -19 0 -45 -34 -45 -59 0 -20 3 -22 33 -16 17
4 40 15 49 25 10 10 28 22 40 26 13 3 53 35 91 70 37 35 84 75 105 88 68 43
104 90 109 140 3 25 10 46 15 46 6 0 8 -6 5 -13 -3 -7 1 -21 8 -30 10 -14 17
-15 43 -6 17 6 34 19 37 30 4 10 14 19 23 19 20 -1 73 -29 55 -30 -15 0 -18
-30 -3 -30 6 0 10 6 10 13 0 8 3 8 9 -2 10 -15 41 -8 41 8 0 6 -12 19 -27 28
l-27 18 59 6 c33 3 61 5 63 4 7 -5 -12 -35 -22 -35 -6 0 -17 -9 -23 -19 -10
-15 -9 -22 2 -31 12 -10 17 -7 26 13 17 38 32 39 72 6 35 -29 36 -31 33 -89
-4 -66 -26 -110 -56 -110 -26 0 -35 19 -17 33 31 24 30 54 -3 89 l-30 33 1
-55 c1 -30 -2 -65 -6 -77 -8 -24 8 -36 63 -48 29 -6 37 -3 66 29 38 39 86 58
86 33 0 -14 -47 -65 -100 -107 -23 -18 -23 -19 -5 -19 11 -1 31 8 45 19 14 11
30 20 36 20 6 0 23 9 38 21 32 25 62 18 68 -16 4 -20 1 -24 -16 -22 -37 4 -31
-34 14 -78 22 -21 40 -45 40 -53 0 -24 -34 -8 -55 25 -20 33 -39 41 -50 23
-16 -26 87 -120 130 -120 10 0 33 -7 52 -17 30 -14 36 -14 44 -2 5 8 6 27 3
42 -6 27 -4 28 15 18 14 -8 21 -21 21 -40 0 -38 11 -46 26 -20 l12 22 11 -21
c10 -19 62 -52 83 -52 4 0 8 12 9 28 l1 27 8 -27 c14 -46 44 -88 63 -88 16 0
18 6 14 43 -6 45 -35 156 -60 222 -8 22 -22 65 -32 95 -19 59 -82 192 -95 200
-4 3 -13 22 -19 42 -7 21 -17 40 -22 43 -5 4 -9 14 -9 24 0 29 -35 55 -58 42
-11 -6 -22 -7 -26 -4 -10 10 -7 48 5 60 13 13 -9 53 -28 53 -7 0 -13 9 -13 19
0 11 -5 23 -11 26 -17 11 -19 1 -4 -28 13 -25 12 -29 -6 -46 -26 -24 -21 -57
8 -54 19 2 21 -2 18 -30 -14 -113 -14 -137 0 -137 20 0 19 -13 -6 -44 -27 -35
-35 -33 -44 12 -4 20 -10 30 -12 22 -3 -8 -7 -22 -9 -30 -4 -10 -13 -3 -30 25
-23 37 -25 47 -19 116 5 61 3 80 -9 91 -16 17 -4 38 21 38 18 0 16 8 -7 37
-26 33 -26 33 11 71 33 34 32 55 -1 34 -13 -8 -21 -8 -26 -1 -7 12 -6 12 19
26 16 8 14 14 -20 58 -44 57 -256 275 -267 275 -10 0 -150 119 -154 131 -4 10
-152 13 -152 3z m294 -284 c-4 -19 -2 -30 5 -30 17 0 13 -30 -4 -37 -21 -7
-22 -6 -30 50 -7 43 -6 47 14 47 17 0 20 -4 15 -30z m90 -15 c13 -41 14 -47 0
-52 -19 -7 -31 4 -39 40 -6 22 -4 27 10 27 14 0 15 3 5 15 -7 9 -8 15 -2 15 5
0 17 -20 26 -45z m96 -53 c0 -14 -48 -33 -55 -22 -4 6 -3 15 0 20 7 12 55 13
55 2z m-213 -96 c-9 -26 -27 -15 -27 16 1 31 1 32 15 13 9 -10 14 -24 12 -29z
m227 -170 c-4 -16 -1 -25 11 -30 15 -5 14 -9 -9 -27 -14 -11 -26 -27 -26 -35
0 -16 -56 -81 -64 -74 -2 3 8 26 24 52 16 26 32 60 36 75 12 53 15 63 25 63 5
0 7 -11 3 -24z m-434 -130 c0 -3 -4 -8 -10 -11 -5 -3 -10 -1 -10 4 0 6 5 11
10 11 6 0 10 -2 10 -4z m-100 -25 c0 -3 -11 -7 -25 -7 -20 -2 -23 1 -15 11 11
13 40 10 40 -4z m760 -206 c0 -9 12 -20 28 -27 75 -30 92 -40 87 -49 -4 -5
-15 -9 -26 -9 -15 0 -18 -5 -13 -24 4 -17 1 -25 -12 -30 -20 -8 -33 8 -35 44
-1 17 -3 19 -6 8 -6 -23 -20 -23 -33 1 -13 25 -13 101 0 101 6 0 10 -7 10 -15z
m157 -47 c-2 -13 -4 -5 -4 17 -1 22 1 32 4 23 2 -10 2 -28 0 -40z"/>
<path d="M2025 3816 c-18 -13 -18 -14 2 -24 11 -6 23 -19 27 -28 5 -13 2 -15
-15 -11 -16 4 -23 -1 -35 -28 -7 -18 -18 -35 -23 -37 -5 -1 -1 -14 10 -27 20
-25 53 -23 43 4 -4 8 -1 15 6 15 8 0 10 9 6 25 -4 17 -2 25 7 25 7 0 23 9 35
20 12 11 26 20 31 20 20 0 23 22 5 41 -20 22 -72 25 -99 5z"/>
<path d="M2150 3734 c0 -16 23 -44 35 -44 22 0 18 28 -4 40 -22 11 -31 13 -31
4z"/>
<path d="M2543 3622 c-8 -5 -8 -12 2 -25 18 -24 49 -18 53 11 3 17 -1 22 -20
22 -13 0 -28 -4 -35 -8z"/>
<path d="M1940 3350 c0 -5 5 -10 10 -10 6 0 10 5 10 10 0 6 -4 10 -10 10 -5 0
-10 -4 -10 -10z"/>
<path d="M2706 3229 c3 -6 1 -15 -6 -19 -7 -4 -9 -13 -6 -19 13 -21 26 -11 26
19 0 17 -5 30 -11 30 -5 0 -7 -5 -3 -11z"/>
<path d="M1845 3060 c3 -5 8 -10 11 -10 2 0 4 5 4 10 0 6 -5 10 -11 10 -5 0
-7 -4 -4 -10z"/>
<path d="M2940 2742 c0 -5 18 -34 39 -65 22 -31 48 -79 58 -107 10 -27 21 -50
25 -50 13 0 9 14 -22 78 -16 34 -30 66 -30 70 0 13 -50 82 -60 82 -6 0 -10 -4
-10 -8z"/>
<path d="M1340 2670 c0 -5 7 -10 16 -10 8 0 12 5 9 10 -3 6 -10 10 -16 10 -5
0 -9 -4 -9 -10z"/>
<path d="M1420 2616 c0 -36 15 -40 17 -5 1 16 -2 29 -7 29 -6 0 -10 -11 -10
-24z"/>
<path d="M1492 2610 c-7 -19 -7 -32 -1 -36 16 -9 39 16 39 42 0 34 -26 30 -38
-6z"/>
<path d="M3840 2599 c0 -5 5 -7 10 -4 6 3 10 8 10 11 0 2 -4 4 -10 4 -5 0 -10
-5 -10 -11z"/>
<path d="M2870 2590 c0 -5 5 -10 10 -10 6 0 10 5 10 10 0 6 -4 10 -10 10 -5 0
-10 -4 -10 -10z"/>
<path d="M1793 2563 c-7 -2 -13 -13 -13 -24 0 -23 27 -25 54 -4 31 23 0 45
-41 28z"/>
<path d="M2311 2514 c0 -11 3 -14 6 -6 3 7 2 16 -1 19 -3 4 -6 -2 -5 -13z"/>
<path d="M2840 2467 c-48 -25 -83 -140 -56 -182 23 -35 81 -45 141 -24 49 17
50 18 53 61 4 52 -11 109 -36 131 -26 23 -72 30 -102 14z"/>
<path d="M2357 2453 c-4 -3 -7 -11 -7 -17 0 -6 5 -5 12 2 6 6 9 14 7 17 -3 3
-9 2 -12 -2z"/>
<path d="M1790 2361 c0 -5 5 -22 10 -37 13 -33 34 -20 28 17 -3 23 -38 41 -38
20z"/>
<path d="M2935 2152 l-30 -17 29 -3 c15 -2 40 -1 53 3 20 5 23 8 13 20 -16 19
-28 18 -65 -3z"/>
<path d="M3246 1815 c-16 -17 -84 -29 -148 -26 -20 1 -39 -3 -43 -8 -3 -6 -12
-8 -20 -5 -7 3 -24 0 -36 -7 -22 -11 -100 -36 -144 -45 -96 -19 -156 -40 -196
-69 -25 -18 -55 -36 -67 -39 -12 -4 -22 -14 -22 -22 0 -17 80 -20 110 -4 11 6
21 6 24 1 3 -5 31 -12 61 -16 38 -4 55 -11 55 -21 0 -8 -9 -14 -19 -14 -27 0
-34 -15 -16 -30 12 -10 18 -10 30 0 10 9 15 9 15 1 0 -16 25 -13 40 4 10 12
22 14 44 9 17 -4 86 -6 153 -6 70 1 125 -3 128 -8 10 -16 35 -12 29 5 -8 19 3
19 22 0 9 -9 13 -23 9 -35 -5 -16 -15 -20 -46 -20 -24 0 -51 -8 -67 -20 -15
-11 -45 -23 -67 -25 -21 -3 -40 -7 -42 -9 -2 -2 19 -11 46 -20 37 -12 57 -13
76 -6 20 8 39 6 73 -5 28 -10 70 -15 107 -13 59 3 60 2 58 -22 -7 -75 -17
-116 -30 -125 -19 -14 -13 -60 7 -60 9 0 15 -9 15 -21 0 -11 5 -27 11 -35 16
-20 15 -101 -2 -120 -8 -8 -18 -37 -23 -63 -8 -42 -19 -59 -92 -132 -46 -46
-90 -84 -99 -84 -8 -1 -25 -6 -38 -14 -18 -10 -21 -15 -10 -23 15 -11 62 -29
101 -37 38 -9 34 -21 -16 -40 -24 -9 -53 -30 -66 -46 -17 -23 -29 -30 -56 -30
-18 0 -36 4 -39 9 -3 5 -15 11 -26 14 -11 3 -18 1 -15 -3 8 -13 107 -60 125
-60 35 0 40 -22 12 -59 -15 -20 -32 -40 -38 -46 -20 -18 -76 -167 -77 -204 -1
-66 3 -101 11 -101 30 0 163 114 226 193 16 21 35 37 42 37 16 0 169 163 205
219 39 60 38 87 -4 105 -37 15 -70 58 -61 79 3 8 1 18 -5 22 -28 16 3 64 41
65 9 0 38 -25 64 -55 26 -30 54 -55 61 -55 14 0 27 22 37 62 5 23 3 26 -10 21
-14 -5 -15 -3 -5 15 11 20 9 22 -14 22 -15 0 -25 6 -25 14 0 8 -9 17 -19 21
-27 8 -43 58 -30 93 7 18 7 39 1 62 -11 36 -26 108 -42 195 -17 95 -33 140
-62 176 -15 20 -28 39 -28 42 0 3 -14 27 -31 52 -17 25 -33 65 -36 88 -3 23
-10 47 -15 53 -5 7 -4 23 2 38 12 32 13 67 3 64 -5 -2 -19 5 -33 15 -21 14
-25 25 -25 69 0 55 -13 69 -39 43z m76 -1317 c-5 -5 -22 -8 -38 -6 l-29 4 35
16 c34 16 54 8 32 -14z"/>
<path d="M3330 1820 c0 -5 5 -10 10 -10 6 0 10 5 10 10 0 6 -4 10 -10 10 -5 0
-10 -4 -10 -10z"/>
<path d="M2460 1730 c0 -11 -4 -20 -9 -20 -12 0 -23 -39 -21 -71 2 -32 -47
-82 -70 -73 -43 17 -76 15 -93 -4 -30 -33 -18 -65 31 -82 49 -17 62 -8 62 45
0 43 24 15 26 -31 1 -30 12 -47 70 -105 37 -38 71 -69 74 -69 3 0 5 80 4 178
-2 195 -14 252 -53 252 -14 0 -21 -7 -21 -20z"/>
<path d="M2184 1435 c-3 -14 -3 -33 1 -42 6 -17 7 -17 16 -1 5 10 16 15 24 12
20 -8 19 20 -1 40 -22 22 -33 20 -40 -9z"/>
<path d="M201 1141 c-13 -10 -21 -23 -17 -30 8 -12 36 -15 37 -3 0 4 2 17 5
30 5 26 5 26 -25 3z"/>
<path d="M220 1035 c-9 -10 -8 -20 2 -39 l13 -25 33 20 c30 20 35 46 6 35 -8
-3 -14 -1 -14 3 0 16 -28 20 -40 6z"/>
<path d="M370 1029 c0 -14 5 -19 17 -17 26 5 29 38 4 38 -15 0 -21 -6 -21 -21z"/>
<path d="M465 1000 c-3 -5 -17 -10 -31 -10 -20 0 -24 -5 -24 -27 0 -47 103
-100 130 -68 7 8 21 15 31 15 26 0 35 20 11 27 -11 3 -26 18 -32 34 l-12 29
-21 -28 c-11 -15 -22 -29 -23 -31 -2 -1 -8 0 -14 4 -8 5 -6 11 6 20 10 7 15
19 11 29 -7 18 -23 21 -32 6z"/>
<path d="M3625 1000 c3 -5 8 -10 11 -10 2 0 4 5 4 10 0 6 -5 10 -11 10 -5 0
-7 -4 -4 -10z"/>
<path d="M310 970 c0 -19 11 -26 23 -14 8 8 -3 34 -14 34 -5 0 -9 -9 -9 -20z"/>
<path d="M3761 971 c-7 -5 -11 -17 -9 -27 4 -17 5 -17 17 4 14 27 12 35 -8 23z"/>
<path d="M3658 964 c-4 -3 4 -23 17 -43 14 -19 25 -41 25 -48 0 -7 7 -13 15
-13 8 0 15 8 15 18 -1 21 -63 96 -72 86z"/>
<path d="M3597 873 c-8 -7 11 -33 23 -33 5 0 6 9 3 20 -5 20 -15 25 -26 13z"/>
<path d="M1380 705 c0 -2 14 -11 30 -20 30 -16 40 -9 18 13 -12 12 -48 17 -48
7z"/>
<path d="M832 691 c-11 -6 -10 -10 4 -15 20 -8 32 0 18 14 -5 5 -15 5 -22 1z"/>
<path d="M1520 670 c0 -11 5 -20 10 -20 6 0 10 9 10 20 0 11 -4 20 -10 20 -5
0 -10 -9 -10 -20z"/>
<path d="M1520 550 c0 -5 5 -10 11 -10 5 0 7 5 4 10 -3 6 -8 10 -11 10 -2 0
-4 -4 -4 -10z"/>
<path d="M1441 534 c0 -11 3 -14 6 -6 3 7 2 16 -1 19 -3 4 -6 -2 -5 -13z"/>
<path d="M1460 494 c0 -13 -7 -15 -29 -11 -26 6 -29 4 -26 -18 1 -14 7 -31 14
-39 17 -20 57 1 76 41 20 41 19 43 -10 43 -16 0 -25 -6 -25 -16z"/>
<path d="M1405 390 c-10 -16 40 -33 72 -25 27 6 27 7 9 21 -15 11 -22 11 -34
1 -12 -9 -16 -9 -19 1 -6 15 -19 16 -28 2z"/>
<path d="M2477 183 c-4 -3 -7 -15 -7 -25 0 -10 -6 -18 -14 -18 -20 0 -31 -19
-18 -32 13 -13 88 54 78 70 -8 13 -29 16 -39 5z"/>
<path d="M2627 157 c-10 -7 -17 -33 -19 -67 l-3 -55 32 1 c24 1 34 -3 38 -17
10 -30 31 -22 54 20 18 36 19 43 6 69 -21 41 -82 69 -108 49z m38 -37 c3 -5
-1 -10 -9 -10 -9 0 -16 5 -16 10 0 6 4 10 9 10 6 0 13 -4 16 -10z"/>
<path d="M2525 110 c-20 -22 -15 -36 10 -27 8 4 15 16 15 27 0 25 -2 25 -25 0z"/>
<path d="M2918 3 c7 -3 16 -2 19 1 4 3 -2 6 -13 5 -11 0 -14 -3 -6 -6z"/>
</g>
</svg>
